<svg xmlns="http://www.w3.org/2000/svg" xmlns:xlink="http://www.w3.org/1999/xlink" width="28" height="28" viewBox="0 0 28 28">
  <defs>
    <linearGradient id="linear-gradient" x1="0.5" x2="0.5" y2="1" gradientUnits="objectBoundingBox">
      <stop offset="0" stop-color="#fffac2"/>
      <stop offset="1" stop-color="#ffc75b"/>
    </linearGradient>
    <clipPath id="clip-path">
      <rect id="矩形_101" data-name="矩形 101" width="28" height="28" rx="4" fill="url(#linear-gradient)"/>
    </clipPath>
  </defs>
  <g id="icon_header_menu" clip-path="url(#clip-path)">
    <g id="menu" transform="translate(4 6)">
      <path id="路径_1" data-name="路径 1" d="M.562,9.5H17.438c.311,0,.562-.448.562-1s-.252-1-.562-1H.562C.252,7.5,0,7.948,0,8.5S.252,9.5.562,9.5Z" transform="translate(6 -7.5)" fill="url(#linear-gradient)"/>
      <path id="路径_2" data-name="路径 2" d="M23.25,14.063H.75c-.414,0-.75.448-.75,1s.336,1,.75,1h22.5c.414,0,.75-.448.75-1S23.664,14.063,23.25,14.063Z" transform="translate(0 -7.063)" fill="url(#linear-gradient)"/>
      <path id="路径_3" data-name="路径 3" d="M20.83,20.625H9.92c-.3,0-.545.448-.545,1s.244,1,.545,1H20.83c.3,0,.545-.448.545-1S21.131,20.625,20.83,20.625Z" transform="translate(2.625 -6.625)" fill="url(#linear-gradient)"/>
    </g>
  </g>
</svg>
