<svg xmlns="http://www.w3.org/2000/svg" xmlns:xlink="http://www.w3.org/1999/xlink" width="155.278" height="62.318" viewBox="0 0 155.278 62.318">
  <defs>
    <linearGradient id="linear-gradient" x1="0.5" x2="0.5" y2="1" gradientUnits="objectBoundingBox">
      <stop offset="0" stop-color="#fffac2"/>
      <stop offset="1" stop-color="#ffc75b"/>
    </linearGradient>
    <linearGradient id="linear-gradient-4" x1="0.5" x2="0.5" y2="1" gradientUnits="objectBoundingBox">
      <stop offset="0" stop-color="#fff"/>
      <stop offset="1" stop-color="#fff5ce"/>
    </linearGradient>
  </defs>
  <g id="组_17925" data-name="组 17925" transform="translate(2945.758 -3254.997)">
    <path id="路径_42380" data-name="路径 42380" d="M-2904.554,3410s-5.085,4.993-14.794,2.4c.092-.185-7.212,5.27-16.551-2.4a34.6,34.6,0,0,1-9.708-27.369c-.093.093,1.11-13.777,13.962-15.164-.092.092,4.9,0,8.137,1.479a9.308,9.308,0,0,0,8.322-.37,12.4,12.4,0,0,1,6.842-1.109c.093,0,12.3,1.942,12.39,15.811-.093.092-4.716-12.945-18.585-8.876-.092,0-7.119,3.329-12.667.832,0,0-3.791-2.866-6.565,2.4a22.062,22.062,0,0,0,0,20.989S-2925.08,3412.963-2904.554,3410Z" transform="translate(0 -96.802)" fill="url(#linear-gradient)"/>
    <path id="路径_42386" data-name="路径 42386" d="M-38.965-.167a.143.143,0,0,1-.054.118.368.368,0,0,1-.169.062,2.293,2.293,0,0,1-.341.019A2.327,2.327,0,0,1-39.88.013a.3.3,0,0,1-.156-.062.154.154,0,0,1-.046-.118V-.548a2.178,2.178,0,0,1-.674.494A1.958,1.958,0,0,1-41.6.124a2.352,2.352,0,0,1-.7-.1,1.579,1.579,0,0,1-.553-.3,1.329,1.329,0,0,1-.363-.486,1.654,1.654,0,0,1-.129-.677,1.532,1.532,0,0,1,.164-.728,1.332,1.332,0,0,1,.489-.51,2.433,2.433,0,0,1,.808-.3,5.776,5.776,0,0,1,1.123-.1h.467v-.29a1.524,1.524,0,0,0-.046-.395.658.658,0,0,0-.15-.282.621.621,0,0,0-.279-.167,1.49,1.49,0,0,0-.432-.054,2.223,2.223,0,0,0-.6.075,3.465,3.465,0,0,0-.47.167q-.2.091-.341.167a.5.5,0,0,1-.223.075.16.16,0,0,1-.1-.038.274.274,0,0,1-.075-.107.742.742,0,0,1-.046-.172,1.452,1.452,0,0,1-.016-.226,1.023,1.023,0,0,1,.027-.263.405.405,0,0,1,.1-.175,1,1,0,0,1,.263-.172,3.092,3.092,0,0,1,.44-.175,4.072,4.072,0,0,1,.551-.132,3.639,3.639,0,0,1,.615-.051,3.673,3.673,0,0,1,.964.11,1.626,1.626,0,0,1,.658.338,1.315,1.315,0,0,1,.376.588,2.748,2.748,0,0,1,.118.854Zm-1.327-2.052h-.516a2.771,2.771,0,0,0-.559.048,1.071,1.071,0,0,0-.376.145.6.6,0,0,0-.212.234.705.705,0,0,0-.067.314A.6.6,0,0,0-41.83-1a.762.762,0,0,0,.529.172.991.991,0,0,0,.524-.145,2.172,2.172,0,0,0,.486-.424Zm7.5-.43A4.469,4.469,0,0,1-32.93-1.5a2.6,2.6,0,0,1-.4.873,1.774,1.774,0,0,1-.655.553,2,2,0,0,1-.9.193,1.709,1.709,0,0,1-.384-.04A1.478,1.478,0,0,1-35.6-.04a2.1,2.1,0,0,1-.325-.207,3.843,3.843,0,0,1-.333-.29V1.719a.157.157,0,0,1-.032.1.241.241,0,0,1-.11.073.922.922,0,0,1-.207.046,2.728,2.728,0,0,1-.328.016,2.728,2.728,0,0,1-.328-.016.922.922,0,0,1-.207-.046.241.241,0,0,1-.11-.073.157.157,0,0,1-.032-.1V-4.974a.165.165,0,0,1,.027-.094.2.2,0,0,1,.094-.067.725.725,0,0,1,.177-.04,2.353,2.353,0,0,1,.277-.013,2.3,2.3,0,0,1,.271.013.725.725,0,0,1,.177.04.2.2,0,0,1,.094.067.165.165,0,0,1,.027.094v.564a4.867,4.867,0,0,1,.411-.379,2.485,2.485,0,0,1,.411-.274,1.866,1.866,0,0,1,.432-.164,2.024,2.024,0,0,1,.475-.054,1.815,1.815,0,0,1,.9.207,1.7,1.7,0,0,1,.6.567,2.552,2.552,0,0,1,.341.838A4.647,4.647,0,0,1-32.793-2.648Zm-1.407.1a3.676,3.676,0,0,0-.046-.588,1.738,1.738,0,0,0-.156-.5.956.956,0,0,0-.29-.352.739.739,0,0,0-.448-.132.9.9,0,0,0-.266.04,1.032,1.032,0,0,0-.269.132,1.879,1.879,0,0,0-.282.236,3.374,3.374,0,0,0-.306.36v1.579a3.157,3.157,0,0,0,.542.556.876.876,0,0,0,.537.2.744.744,0,0,0,.448-.134,1.039,1.039,0,0,0,.3-.352A1.772,1.772,0,0,0-34.257-2,2.71,2.71,0,0,0-34.2-2.551Zm7.31-.1A4.469,4.469,0,0,1-27.027-1.5a2.6,2.6,0,0,1-.4.873,1.774,1.774,0,0,1-.655.553,2,2,0,0,1-.9.193,1.709,1.709,0,0,1-.384-.04A1.478,1.478,0,0,1-29.7-.04a2.1,2.1,0,0,1-.325-.207,3.844,3.844,0,0,1-.333-.29V1.719a.157.157,0,0,1-.032.1.241.241,0,0,1-.11.073.922.922,0,0,1-.207.046,2.728,2.728,0,0,1-.328.016,2.728,2.728,0,0,1-.328-.016.922.922,0,0,1-.207-.046.241.241,0,0,1-.11-.073.157.157,0,0,1-.032-.1V-4.974a.165.165,0,0,1,.027-.094.2.2,0,0,1,.094-.067.725.725,0,0,1,.177-.04,2.353,2.353,0,0,1,.277-.013,2.3,2.3,0,0,1,.271.013.725.725,0,0,1,.177.04.2.2,0,0,1,.094.067.165.165,0,0,1,.027.094v.564a4.867,4.867,0,0,1,.411-.379,2.485,2.485,0,0,1,.411-.274,1.866,1.866,0,0,1,.432-.164,2.024,2.024,0,0,1,.475-.054,1.815,1.815,0,0,1,.9.207,1.7,1.7,0,0,1,.6.567A2.552,2.552,0,0,1-27-3.668,4.647,4.647,0,0,1-26.89-2.648Zm-1.407.1a3.677,3.677,0,0,0-.046-.588,1.738,1.738,0,0,0-.156-.5.956.956,0,0,0-.29-.352.739.739,0,0,0-.448-.132.9.9,0,0,0-.266.04,1.032,1.032,0,0,0-.269.132,1.879,1.879,0,0,0-.282.236,3.374,3.374,0,0,0-.306.36v1.579a3.157,3.157,0,0,0,.542.556.876.876,0,0,0,.537.2.744.744,0,0,0,.448-.134,1.039,1.039,0,0,0,.3-.352A1.772,1.772,0,0,0-28.354-2,2.71,2.71,0,0,0-28.3-2.551Zm3.84,2.369a.146.146,0,0,1-.032.094.237.237,0,0,1-.11.067.958.958,0,0,1-.207.04,3.269,3.269,0,0,1-.328.013,3.269,3.269,0,0,1-.328-.013.958.958,0,0,1-.207-.04.237.237,0,0,1-.11-.067.146.146,0,0,1-.032-.094V-7.246a.157.157,0,0,1,.032-.1.241.241,0,0,1,.11-.073.922.922,0,0,1,.207-.046,2.728,2.728,0,0,1,.328-.016,2.728,2.728,0,0,1,.328.016.922.922,0,0,1,.207.046.241.241,0,0,1,.11.073.157.157,0,0,1,.032.1Zm5.774-2.535a.521.521,0,0,1-.11.365.394.394,0,0,1-.3.118h-2.917a1.991,1.991,0,0,0,.073.556,1.06,1.06,0,0,0,.231.424,1.006,1.006,0,0,0,.408.266,1.748,1.748,0,0,0,.6.091,3.369,3.369,0,0,0,.623-.051,4.132,4.132,0,0,0,.465-.113q.2-.062.325-.113a.6.6,0,0,1,.209-.051A.158.158,0,0,1-19-1.206a.14.14,0,0,1,.054.067.449.449,0,0,1,.03.137q.008.089.008.223,0,.118-.005.2a1.266,1.266,0,0,1-.016.142.341.341,0,0,1-.032.1.372.372,0,0,1-.056.078.653.653,0,0,1-.191.1,3.018,3.018,0,0,1-.4.126,5.437,5.437,0,0,1-.553.107,4.6,4.6,0,0,1-.666.046,3.526,3.526,0,0,1-1.12-.161,1.994,1.994,0,0,1-.8-.489,2.033,2.033,0,0,1-.481-.827,3.884,3.884,0,0,1-.158-1.171,3.721,3.721,0,0,1,.167-1.152,2.415,2.415,0,0,1,.483-.87,2.079,2.079,0,0,1,.771-.545,2.652,2.652,0,0,1,1.023-.188,2.679,2.679,0,0,1,1.029.177,1.856,1.856,0,0,1,.7.491,1.983,1.983,0,0,1,.4.744,3.24,3.24,0,0,1,.129.935ZM-19.994-3.1A1.389,1.389,0,0,0-20.222-4a.883.883,0,0,0-.755-.325.98.98,0,0,0-.448.1.918.918,0,0,0-.317.26,1.188,1.188,0,0,0-.193.387,1.926,1.926,0,0,0-.078.475Zm6.741-1.536a.929.929,0,0,1-.059.381q-.059.124-.145.124h-.564a.765.765,0,0,1,.169.293A1.14,1.14,0,0,1-13.8-3.5a1.869,1.869,0,0,1-.14.744,1.478,1.478,0,0,1-.4.548,1.767,1.767,0,0,1-.628.338,2.727,2.727,0,0,1-.819.115,1.687,1.687,0,0,1-.44-.056,1.114,1.114,0,0,1-.322-.132.782.782,0,0,0-.115.167.453.453,0,0,0-.051.215.3.3,0,0,0,.137.255.7.7,0,0,0,.384.11l1.166.043a2.83,2.83,0,0,1,.728.115,1.557,1.557,0,0,1,.537.279,1.206,1.206,0,0,1,.333.432,1.367,1.367,0,0,1,.115.575,1.486,1.486,0,0,1-.156.669,1.515,1.515,0,0,1-.467.545,2.416,2.416,0,0,1-.781.365,4.017,4.017,0,0,1-1.1.134,4.859,4.859,0,0,1-1.045-.1,2.292,2.292,0,0,1-.709-.269,1.089,1.089,0,0,1-.4-.411A1.1,1.1,0,0,1-18.1.661a1.236,1.236,0,0,1,.046-.338,1.272,1.272,0,0,1,.134-.309,1.586,1.586,0,0,1,.218-.282,2.345,2.345,0,0,1,.3-.258.9.9,0,0,1-.357-.336.892.892,0,0,1-.126-.465,1.167,1.167,0,0,1,.145-.577,1.842,1.842,0,0,1,.376-.47,1.422,1.422,0,0,1-.3-.451,1.668,1.668,0,0,1-.113-.655,1.817,1.817,0,0,1,.148-.749,1.585,1.585,0,0,1,.411-.559,1.818,1.818,0,0,1,.628-.349,2.553,2.553,0,0,1,.806-.121,3.357,3.357,0,0,1,.432.027,2.862,2.862,0,0,1,.384.075h1.52q.091,0,.148.118A1,1,0,0,1-13.253-4.641Zm-1.735,1.133a.813.813,0,0,0-.215-.6.821.821,0,0,0-.607-.215.849.849,0,0,0-.349.067.7.7,0,0,0-.25.183.755.755,0,0,0-.148.269,1.055,1.055,0,0,0-.048.32.775.775,0,0,0,.215.577.812.812,0,0,0,.6.212.9.9,0,0,0,.354-.064.688.688,0,0,0,.25-.177.77.77,0,0,0,.15-.26A.939.939,0,0,0-14.988-3.507Zm.317,3.824a.419.419,0,0,0-.193-.371,1.009,1.009,0,0,0-.532-.14l-.961-.027a1.407,1.407,0,0,0-.223.2,1.2,1.2,0,0,0-.134.18.533.533,0,0,0-.067.167A.847.847,0,0,0-16.8.489.441.441,0,0,0-16.527.9a1.7,1.7,0,0,0,.765.14,1.847,1.847,0,0,0,.516-.062.994.994,0,0,0,.338-.164.587.587,0,0,0,.183-.228A.672.672,0,0,0-14.671.317Zm6.209-.483a.143.143,0,0,1-.054.118.368.368,0,0,1-.169.062,2.293,2.293,0,0,1-.341.019A2.327,2.327,0,0,1-9.378.013a.3.3,0,0,1-.156-.062.154.154,0,0,1-.046-.118V-.548a2.178,2.178,0,0,1-.674.494,1.958,1.958,0,0,1-.841.177,2.352,2.352,0,0,1-.7-.1,1.579,1.579,0,0,1-.553-.3,1.329,1.329,0,0,1-.363-.486,1.654,1.654,0,0,1-.129-.677,1.532,1.532,0,0,1,.164-.728,1.332,1.332,0,0,1,.489-.51,2.433,2.433,0,0,1,.808-.3,5.776,5.776,0,0,1,1.123-.1h.467v-.29a1.524,1.524,0,0,0-.046-.395.658.658,0,0,0-.15-.282.621.621,0,0,0-.279-.167,1.49,1.49,0,0,0-.432-.054,2.223,2.223,0,0,0-.6.075,3.465,3.465,0,0,0-.47.167q-.2.091-.341.167a.5.5,0,0,1-.223.075.16.16,0,0,1-.1-.038.274.274,0,0,1-.075-.107.742.742,0,0,1-.046-.172,1.452,1.452,0,0,1-.016-.226,1.023,1.023,0,0,1,.027-.263.405.405,0,0,1,.1-.175,1,1,0,0,1,.263-.172,3.092,3.092,0,0,1,.44-.175,4.072,4.072,0,0,1,.551-.132,3.639,3.639,0,0,1,.615-.051,3.673,3.673,0,0,1,.964.11,1.626,1.626,0,0,1,.658.338,1.315,1.315,0,0,1,.376.588,2.748,2.748,0,0,1,.118.854ZM-9.789-2.218H-10.3a2.771,2.771,0,0,0-.559.048,1.071,1.071,0,0,0-.376.145.6.6,0,0,0-.212.234.705.705,0,0,0-.067.314A.6.6,0,0,0-11.328-1a.762.762,0,0,0,.529.172.991.991,0,0,0,.524-.145A2.172,2.172,0,0,0-9.789-1.4ZM.508-.183a.146.146,0,0,1-.032.094.236.236,0,0,1-.107.067.908.908,0,0,1-.2.04A3.269,3.269,0,0,1-.164.032q-.2,0-.333-.013A.958.958,0,0,1-.7-.021.218.218,0,0,1-.811-.089a.155.155,0,0,1-.03-.094V-3.024a1.969,1.969,0,0,0-.046-.44,1.034,1.034,0,0,0-.14-.341.661.661,0,0,0-.236-.22A.7.7,0,0,0-1.6-4.1a.808.808,0,0,0-.489.188,3.262,3.262,0,0,0-.537.548V-.183a.146.146,0,0,1-.032.094.237.237,0,0,1-.11.067.958.958,0,0,1-.207.04A3.2,3.2,0,0,1-3.3.032,3.269,3.269,0,0,1-3.628.019a.958.958,0,0,1-.207-.04.237.237,0,0,1-.11-.067.146.146,0,0,1-.032-.094V-3.024a1.969,1.969,0,0,0-.046-.44,1.071,1.071,0,0,0-.137-.341.633.633,0,0,0-.236-.22A.7.7,0,0,0-4.735-4.1a.814.814,0,0,0-.494.188,3.125,3.125,0,0,0-.532.548V-.183a.146.146,0,0,1-.032.094.237.237,0,0,1-.11.067.958.958,0,0,1-.207.04,3.269,3.269,0,0,1-.328.013A3.269,3.269,0,0,1-6.765.019a.958.958,0,0,1-.207-.04.237.237,0,0,1-.11-.067.146.146,0,0,1-.032-.094V-4.974a.165.165,0,0,1,.027-.094.2.2,0,0,1,.1-.067.771.771,0,0,1,.18-.04,2.353,2.353,0,0,1,.277-.013,2.483,2.483,0,0,1,.285.013.646.646,0,0,1,.175.04.2.2,0,0,1,.089.067.165.165,0,0,1,.027.094v.553a3.168,3.168,0,0,1,.792-.645,1.7,1.7,0,0,1,.824-.215,2.105,2.105,0,0,1,.532.062,1.517,1.517,0,0,1,.422.177,1.324,1.324,0,0,1,.32.277,1.607,1.607,0,0,1,.226.36,4.055,4.055,0,0,1,.422-.4,2.48,2.48,0,0,1,.408-.271,1.867,1.867,0,0,1,.4-.156A1.667,1.667,0,0,1-1.2-5.28a1.815,1.815,0,0,1,.806.161,1.412,1.412,0,0,1,.529.438,1.762,1.762,0,0,1,.287.647,3.463,3.463,0,0,1,.086.784ZM6.26-2.718a.521.521,0,0,1-.11.365.394.394,0,0,1-.3.118H2.93A1.991,1.991,0,0,0,3-1.678a1.06,1.06,0,0,0,.231.424,1.006,1.006,0,0,0,.408.266,1.748,1.748,0,0,0,.6.091,3.369,3.369,0,0,0,.623-.051,4.132,4.132,0,0,0,.465-.113q.2-.062.325-.113a.6.6,0,0,1,.209-.051.158.158,0,0,1,.081.019A.14.14,0,0,1,6-1.139.449.449,0,0,1,6.026-1q.008.089.008.223,0,.118-.005.2a1.266,1.266,0,0,1-.016.142.341.341,0,0,1-.032.1.373.373,0,0,1-.056.078.653.653,0,0,1-.191.1,3.018,3.018,0,0,1-.4.126,5.437,5.437,0,0,1-.553.107,4.6,4.6,0,0,1-.666.046A3.526,3.526,0,0,1,3-.038a1.994,1.994,0,0,1-.8-.489,2.033,2.033,0,0,1-.481-.827,3.884,3.884,0,0,1-.158-1.171,3.721,3.721,0,0,1,.167-1.152,2.415,2.415,0,0,1,.483-.87,2.079,2.079,0,0,1,.771-.545A2.652,2.652,0,0,1,4-5.28,2.679,2.679,0,0,1,5.027-5.1a1.856,1.856,0,0,1,.7.491,1.983,1.983,0,0,1,.4.744,3.24,3.24,0,0,1,.129.935ZM4.949-3.1A1.389,1.389,0,0,0,4.721-4a.883.883,0,0,0-.755-.325.98.98,0,0,0-.448.1.918.918,0,0,0-.317.26,1.188,1.188,0,0,0-.193.387A1.926,1.926,0,0,0,2.93-3.1ZM8.962-.773A.954.954,0,0,1,8.787-.1.887.887,0,0,1,8.161.07.886.886,0,0,1,7.538-.1a.9.9,0,0,1-.172-.642.964.964,0,0,1,.175-.677.9.9,0,0,1,.631-.172.876.876,0,0,1,.618.169A.914.914,0,0,1,8.962-.773Zm4.974-.172q0,.14-.008.234a1.366,1.366,0,0,1-.021.158.487.487,0,0,1-.032.1.389.389,0,0,1-.083.1,1.182,1.182,0,0,1-.22.15,2.173,2.173,0,0,1-.354.158,2.871,2.871,0,0,1-.432.113A2.653,2.653,0,0,1,12.3.118a2.61,2.61,0,0,1-.98-.172,1.839,1.839,0,0,1-.717-.508,2.232,2.232,0,0,1-.438-.819,3.789,3.789,0,0,1-.148-1.106A3.837,3.837,0,0,1,10.2-3.73a2.377,2.377,0,0,1,.5-.867,2,2,0,0,1,.763-.51,2.713,2.713,0,0,1,.967-.167,2.352,2.352,0,0,1,.422.038,2.44,2.44,0,0,1,.387.1,2.074,2.074,0,0,1,.322.145.985.985,0,0,1,.2.14.562.562,0,0,1,.083.1.339.339,0,0,1,.038.1,1.366,1.366,0,0,1,.021.158q.008.094.008.228a1.24,1.24,0,0,1-.054.438q-.054.126-.14.126a.331.331,0,0,1-.193-.075q-.1-.075-.242-.167a1.8,1.8,0,0,0-.333-.167,1.274,1.274,0,0,0-.462-.075.918.918,0,0,0-.806.406,2.1,2.1,0,0,0-.279,1.19,2.984,2.984,0,0,0,.07.682,1.453,1.453,0,0,0,.207.494.872.872,0,0,0,.344.3,1.1,1.1,0,0,0,.481.1,1.255,1.255,0,0,0,.481-.083,1.957,1.957,0,0,0,.352-.185q.15-.1.252-.185a.3.3,0,0,1,.172-.083.122.122,0,0,1,.081.027.19.19,0,0,1,.051.1,1.22,1.22,0,0,1,.03.185Q13.935-1.123,13.935-.945ZM19.7-2.626a3.661,3.661,0,0,1-.161,1.117,2.358,2.358,0,0,1-.489.87,2.173,2.173,0,0,1-.822.564,3.082,3.082,0,0,1-1.155.2,3.163,3.163,0,0,1-1.112-.177,2,2,0,0,1-.784-.516,2.119,2.119,0,0,1-.462-.833,3.875,3.875,0,0,1-.15-1.128,3.631,3.631,0,0,1,.164-1.12,2.359,2.359,0,0,1,.491-.87,2.192,2.192,0,0,1,.819-.561,3.061,3.061,0,0,1,1.152-.2,3.225,3.225,0,0,1,1.117.175,1.953,1.953,0,0,1,.781.513,2.137,2.137,0,0,1,.459.833A3.9,3.9,0,0,1,19.7-2.626Zm-1.391.054a3.517,3.517,0,0,0-.056-.653,1.535,1.535,0,0,0-.191-.518.954.954,0,0,0-.357-.344,1.147,1.147,0,0,0-.561-.124,1.187,1.187,0,0,0-.526.11.945.945,0,0,0-.371.322,1.542,1.542,0,0,0-.218.51,2.886,2.886,0,0,0-.073.679,3.361,3.361,0,0,0,.059.653,1.615,1.615,0,0,0,.191.518.909.909,0,0,0,.357.341,1.172,1.172,0,0,0,.559.121,1.2,1.2,0,0,0,.532-.11.952.952,0,0,0,.371-.32,1.473,1.473,0,0,0,.215-.508A2.992,2.992,0,0,0,18.313-2.573ZM28.394-.183a.146.146,0,0,1-.032.094.236.236,0,0,1-.107.067.908.908,0,0,1-.2.04,3.269,3.269,0,0,1-.328.013q-.2,0-.333-.013a.958.958,0,0,1-.207-.04.218.218,0,0,1-.107-.067.155.155,0,0,1-.03-.094V-3.024A1.97,1.97,0,0,0,27-3.464a1.033,1.033,0,0,0-.14-.341.661.661,0,0,0-.236-.22.7.7,0,0,0-.341-.078.808.808,0,0,0-.489.188,3.262,3.262,0,0,0-.537.548V-.183a.146.146,0,0,1-.032.094.237.237,0,0,1-.11.067.958.958,0,0,1-.207.04,3.2,3.2,0,0,1-.322.013,3.269,3.269,0,0,1-.328-.013.958.958,0,0,1-.207-.04.237.237,0,0,1-.11-.067.146.146,0,0,1-.032-.094V-3.024a1.97,1.97,0,0,0-.046-.44,1.071,1.071,0,0,0-.137-.341.633.633,0,0,0-.236-.22.7.7,0,0,0-.338-.078.814.814,0,0,0-.494.188,3.125,3.125,0,0,0-.532.548V-.183a.146.146,0,0,1-.032.094.237.237,0,0,1-.11.067.958.958,0,0,1-.207.04,3.269,3.269,0,0,1-.328.013,3.269,3.269,0,0,1-.328-.013.958.958,0,0,1-.207-.04.237.237,0,0,1-.11-.067.146.146,0,0,1-.032-.094V-4.974a.165.165,0,0,1,.027-.094.2.2,0,0,1,.1-.067.771.771,0,0,1,.18-.04,2.353,2.353,0,0,1,.277-.013,2.483,2.483,0,0,1,.285.013.646.646,0,0,1,.175.04.2.2,0,0,1,.089.067.165.165,0,0,1,.027.094v.553a3.168,3.168,0,0,1,.792-.645,1.7,1.7,0,0,1,.824-.215,2.105,2.105,0,0,1,.532.062,1.517,1.517,0,0,1,.422.177,1.324,1.324,0,0,1,.32.277,1.607,1.607,0,0,1,.226.36,4.055,4.055,0,0,1,.422-.4,2.48,2.48,0,0,1,.408-.271,1.867,1.867,0,0,1,.4-.156,1.667,1.667,0,0,1,.411-.051,1.815,1.815,0,0,1,.806.161,1.412,1.412,0,0,1,.529.438,1.762,1.762,0,0,1,.287.647,3.463,3.463,0,0,1,.086.784Zm2.917-.591a.954.954,0,0,1-.175.671A.887.887,0,0,1,30.51.07.886.886,0,0,1,29.887-.1a.9.9,0,0,1-.172-.642.964.964,0,0,1,.175-.677.9.9,0,0,1,.631-.172.876.876,0,0,1,.618.169A.914.914,0,0,1,31.311-.773Zm3.916.118a1.691,1.691,0,0,1-.03.363.391.391,0,0,1-.078.177.425.425,0,0,1-.142.091,1.333,1.333,0,0,1-.22.07,2.3,2.3,0,0,1-.274.046,2.747,2.747,0,0,1-.3.016,2.143,2.143,0,0,1-.7-.1A1.16,1.16,0,0,1,33-.309a1.308,1.308,0,0,1-.285-.534,2.817,2.817,0,0,1-.091-.763V-4.061h-.575q-.1,0-.156-.126a1.176,1.176,0,0,1-.054-.422,2.172,2.172,0,0,1,.013-.263.634.634,0,0,1,.04-.169.2.2,0,0,1,.067-.089.165.165,0,0,1,.094-.027h.569V-6.225a.167.167,0,0,1,.03-.1.221.221,0,0,1,.107-.073.852.852,0,0,1,.209-.043q.132-.013.325-.013t.33.013a.81.81,0,0,1,.207.043.241.241,0,0,1,.107.073.157.157,0,0,1,.032.1v1.069h1.042a.165.165,0,0,1,.094.027.2.2,0,0,1,.067.089.634.634,0,0,1,.04.169,2.171,2.171,0,0,1,.013.263,1.176,1.176,0,0,1-.054.422q-.054.126-.156.126H33.969v2.25a1.12,1.12,0,0,0,.124.588.479.479,0,0,0,.44.2.908.908,0,0,0,.193-.019,1.231,1.231,0,0,0,.153-.043l.113-.043a.221.221,0,0,1,.083-.019.113.113,0,0,1,.062.019.126.126,0,0,1,.046.075,1.166,1.166,0,0,1,.03.153A1.856,1.856,0,0,1,35.226-.655Zm8.309-4.329a.81.81,0,0,1-.016.145q-.016.086-.059.247L42.182-.258a.454.454,0,0,1-.07.148.28.28,0,0,1-.132.089.956.956,0,0,1-.252.043q-.164.011-.427.011t-.43-.013a1.112,1.112,0,0,1-.26-.046.281.281,0,0,1-.137-.089.387.387,0,0,1-.064-.142L39.6-3.169l-.011-.048-.011.048L38.841-.258a.417.417,0,0,1-.062.148.265.265,0,0,1-.137.089,1.083,1.083,0,0,1-.263.043q-.167.011-.43.011T37.517.019a1.1,1.1,0,0,1-.258-.046.281.281,0,0,1-.137-.089.387.387,0,0,1-.064-.142L35.79-4.592a1.79,1.79,0,0,1-.062-.244,1.018,1.018,0,0,1-.013-.148.155.155,0,0,1,.03-.094.2.2,0,0,1,.107-.064,1.01,1.01,0,0,1,.209-.035q.132-.011.33-.011.215,0,.349.011a.85.85,0,0,1,.209.038.2.2,0,0,1,.1.073.364.364,0,0,1,.046.11l.951,3.518.011.064.011-.064.892-3.518a.3.3,0,0,1,.051-.11.233.233,0,0,1,.1-.073.744.744,0,0,1,.2-.038q.126-.011.325-.011a3.1,3.1,0,0,1,.322.013.977.977,0,0,1,.2.038.2.2,0,0,1,.1.064.306.306,0,0,1,.046.094l.956,3.545.016.059.011-.064L42.2-4.958a.263.263,0,0,1,.043-.11.215.215,0,0,1,.107-.073.833.833,0,0,1,.2-.038q.129-.011.328-.011t.325.011a.893.893,0,0,1,.2.035.185.185,0,0,1,.1.064A.165.165,0,0,1,43.535-4.984Z" transform="translate(-2858 3312.997)" fill="url(#linear-gradient)"/>
    <g id="组_17679" data-name="组 17679" transform="translate(-2929.171 3279.09)">
      <path id="路径_42385" data-name="路径 42385" d="M-26.517-5.7V-8.98H-19v6.714a15.406,15.406,0,0,1-3.819,2,12.962,12.962,0,0,1-3.937.532,9.57,9.57,0,0,1-4.571-.956,6.543,6.543,0,0,1-2.739-2.847,9.357,9.357,0,0,1-.972-4.34,9.061,9.061,0,0,1,1.063-4.485,6.888,6.888,0,0,1,3.115-2.9,10.137,10.137,0,0,1,4.308-.763,12.1,12.1,0,0,1,3.9.473A5.069,5.069,0,0,1-20.5-14.078a6.514,6.514,0,0,1,1.284,2.519l-4.694.838a2.542,2.542,0,0,0-.983-1.364,3.07,3.07,0,0,0-1.767-.473,3.186,3.186,0,0,0-2.551,1.112,5.352,5.352,0,0,0-.951,3.518A5.519,5.519,0,0,0-29.2-4.275a3.378,3.378,0,0,0,2.68,1.1,5.1,5.1,0,0,0,1.558-.236,8.415,8.415,0,0,0,1.7-.806V-5.7ZM-6.426-2.6h-5.525L-12.718,0h-4.969l5.919-15.748H-6.46L-.542,0h-5.1ZM-7.436-6l-1.738-5.661L-10.894-6ZM.951-15.748h6.4L9.818-6.166l2.45-9.582h6.4V0H14.679V-12.01L11.608,0H8L4.936-12.01V0H.951Zm20.808,0H34.8v3.362H26.635v2.5h7.573v3.212H26.635v3.1h8.4V0H21.758Z" transform="translate(36.171 23.907)" fill="url(#linear-gradient)"/>
      <path id="路径_42387" data-name="路径 42387" d="M8.866-14.508a23.1,23.1,0,0,0,4.212-3.38,29.89,29.89,0,0,0,4.5,3.38Zm9.568,8.32a23.828,23.828,0,0,1-2.288,4.342l1.742.728h-3.25v-5.07Zm-7.124,0v5.07h-3.8l2.132-.936A17.784,17.784,0,0,0,7.384-6.188Zm8.554-5.486v-1.534A34.349,34.349,0,0,0,23.4-11.7a15.006,15.006,0,0,1,2.132-2.7,28.824,28.824,0,0,1-10.66-5.538c.26-.364.494-.7.728-1.04l-2.938-1.326c-2.47,3.874-7.15,6.5-12.038,7.9a11.189,11.189,0,0,1,2.054,2.86q1.716-.624,3.354-1.4v1.274H11.31v2.7H3.042v2.782h3.77L4.758-5.33A21.6,21.6,0,0,1,6.916-1.118H1.794V1.716h22.49V-1.118h-5.59c.806-1.118,1.82-2.678,2.73-4.134l-2.6-.936h4.108V-8.97H14.638v-2.7ZM31.34-12.78H33.7v-1.16h4.54v1.16h2.38v-1.16h4.34V-15.9H40.62v-1.02H38.24v1.02H33.7v-1.02H31.34v1.02H27.1v1.96h4.24Zm2.44,6.94a7.27,7.27,0,0,1-1.12,2.52V-6.54h3.2V-8.38H32.94V-9.54h2.22v-1.68H32.94v-1.4H30.82v4.24H29.74v-3.1H27.88v3.1h-.96v1.84h3.7V-2.6H32.1A9.181,9.181,0,0,1,26.88-.08a5.546,5.546,0,0,1,1.1,1.88c4.34-1.18,6.74-3.18,7.78-7.22Zm-5.64-.2a10.469,10.469,0,0,1-1.6,3.08,10.566,10.566,0,0,1,1.6,1.16,16.473,16.473,0,0,0,1.9-3.7ZM38.48-3.96h3.68v.82H38.48Zm0-2.08h3.68v.82H38.48Zm0-2.06h3.68v.82H38.48ZM44.4-1.58V-9.64H41.14l.34-.96h3.58v-1.74H35.44v1.74h3.68c-.06.34-.1.64-.16.96H36.34v8.06h1.48A16.48,16.48,0,0,1,33.9.24a13.948,13.948,0,0,1,1.24,1.54A20.373,20.373,0,0,0,39.96-.58l-1.36-1h3.26L40.7-.7a29.373,29.373,0,0,1,3.32,2.38L45.62.46a22.877,22.877,0,0,0-2.96-2.04Zm7.16-8.06v-1.28h3.22v1.28Zm0-4.4h3.22v1.28H51.56Zm8.92,1.28H57.3v-1.28h3.18Zm0,3.12H57.3v-1.28h3.18ZM64.94-4.3V-6.48H57.3V-7.66h5.8v-8.36H49.06v8.36h5.72v1.18H47.12V-4.3h5.92A17.929,17.929,0,0,1,46.5-.78,12.333,12.333,0,0,1,48.12,1.2a19.2,19.2,0,0,0,6.66-4.28V1.74H57.3V-3.18a20.067,20.067,0,0,0,6.62,4.26,9.613,9.613,0,0,1,1.6-2.02A19.6,19.6,0,0,1,59.04-4.3Z" transform="translate(73.171 22.907)" fill="url(#linear-gradient-4)"/>
    </g>
    <path id="路径_42381" data-name="路径 42381" d="M-2792.61,3300.474s3.236,1.988,2.635,6.981c-.093-.046-.139,1.572.693.878,0,0,1.11-.555.971-5.687a10.685,10.685,0,0,0-.971-4.392c0-.046-.509-.878-2.358-.509.092,0-2.034.693-1.8,1.8C-2793.35,3299.55-2793.489,3299.827-2792.61,3300.474Z" transform="translate(-131.175 -36.74)" fill="url(#linear-gradient)"/>
    <path id="路径_42382" data-name="路径 42382" d="M-2748.106,3266.925a13.589,13.589,0,0,1,9.708-5.733c-.139-.092-7.4,2.82-9.2,8-.046-.046,6.611.74,10.726-4.068.046.046,3.375-3.652,3.19-10.125a10.143,10.143,0,0,1-7.073,3.606C-2740.8,3258.649-2749.354,3257.863-2748.106,3266.925Z" transform="translate(-170.132)" fill="#a3cb32"/>
  </g>
</svg>
