<svg xmlns="http://www.w3.org/2000/svg" xmlns:xlink="http://www.w3.org/1999/xlink" width="1433.771" height="424.859" viewBox="0 0 1433.771 424.859">
  <defs>
    <clipPath id="clip-path">
      <rect id="矩形_3959" data-name="矩形 3959" width="566" height="394" transform="translate(1091 158)" fill="#fff" stroke="#707070" stroke-width="1"/>
    </clipPath>
    <linearGradient id="linear-gradient" x1="0.03" y1="-2.073" x2="1.03" y2="-2.073" gradientUnits="objectBoundingBox">
      <stop offset="0" stop-color="#fecfa8"/>
      <stop offset="1" stop-color="#fa2a70"/>
    </linearGradient>
    <filter id="路径_43124" x="832.761" y="-155.956" width="630.069" height="641.508" filterUnits="userSpaceOnUse">
      <feOffset dy="3" input="SourceAlpha"/>
      <feGaussianBlur stdDeviation="6" result="blur"/>
      <feFlood flood-color="#925d5d" flood-opacity="0.502"/>
      <feComposite operator="in" in2="blur"/>
      <feComposite in="SourceGraphic"/>
    </filter>
    <linearGradient id="linear-gradient-2" x1="0.033" y1="3.482" x2="1.033" y2="3.482" gradientUnits="objectBoundingBox">
      <stop offset="0" stop-color="#fb2b70"/>
      <stop offset="1" stop-color="#fdcba7"/>
    </linearGradient>
    <linearGradient id="linear-gradient-3" x1="42.88" y1="0.146" x2="43.587" y2="0.854" gradientUnits="objectBoundingBox">
      <stop offset="0" stop-color="#fb2d57"/>
      <stop offset="1" stop-color="#fdd0a7"/>
    </linearGradient>
    <filter id="椭圆_287" x="1320.675" y="157.682" width="129.666" height="129.666" filterUnits="userSpaceOnUse">
      <feOffset dy="3" input="SourceAlpha"/>
      <feGaussianBlur stdDeviation="6" result="blur-2"/>
      <feFlood flood-color="#a21a4d" flood-opacity="0.502"/>
      <feComposite operator="in" in2="blur-2"/>
      <feComposite in="SourceGraphic"/>
    </filter>
    <linearGradient id="linear-gradient-4" x1="96.147" y1="0.146" x2="96.855" y2="0.854" gradientUnits="objectBoundingBox">
      <stop offset="0" stop-color="#fd2d70"/>
      <stop offset="1" stop-color="#fdd2aa"/>
    </linearGradient>
    <linearGradient id="linear-gradient-5" x1="5.161" y1="0.436" x2="6.161" y2="0.436" gradientUnits="objectBoundingBox">
      <stop offset="0" stop-color="#ff8f8f"/>
      <stop offset="1" stop-color="#fed2a6"/>
    </linearGradient>
    <filter id="路径_43126" x="869.561" y="-61.646" width="575.027" height="595.986" filterUnits="userSpaceOnUse">
      <feOffset dy="3" input="SourceAlpha"/>
      <feGaussianBlur stdDeviation="6" result="blur-3"/>
      <feFlood flood-color="#982039" flood-opacity="0.502"/>
      <feComposite operator="in" in2="blur-3"/>
      <feComposite in="SourceGraphic"/>
    </filter>
    <linearGradient id="linear-gradient-6" x1="31.767" y1="0.75" x2="32.633" y2="0.25" gradientUnits="objectBoundingBox">
      <stop offset="0" stop-color="#fe5b5e"/>
      <stop offset="1" stop-color="#ffcda5"/>
    </linearGradient>
    <linearGradient id="linear-gradient-7" x1="0.03" y1="3.073" x2="1.03" y2="3.073" xlink:href="#linear-gradient"/>
    <filter id="路径_43141" x="66.393" y="0" width="519.125" height="403.174" filterUnits="userSpaceOnUse">
      <feOffset dy="3" input="SourceAlpha"/>
      <feGaussianBlur stdDeviation="6" result="blur-4"/>
      <feFlood flood-color="#7e4812" flood-opacity="0.502"/>
      <feComposite operator="in" in2="blur-4"/>
      <feComposite in="SourceGraphic"/>
    </filter>
    <linearGradient id="linear-gradient-8" x1="0.033" y1="-2.482" x2="1.033" y2="-2.482" gradientUnits="objectBoundingBox">
      <stop offset="0" stop-color="#fdcba7"/>
      <stop offset="1" stop-color="#ffc5cf"/>
    </linearGradient>
    <filter id="路径_43142" x="110.656" y="66.393" width="522.886" height="354.689" filterUnits="userSpaceOnUse">
      <feOffset dy="3" input="SourceAlpha"/>
      <feGaussianBlur stdDeviation="6" result="blur-5"/>
      <feFlood flood-color="#925d5d" flood-opacity="0.502"/>
      <feComposite operator="in" in2="blur-5"/>
      <feComposite in="SourceGraphic"/>
    </filter>
    <linearGradient id="linear-gradient-9" x1="42.88" y1="0.854" x2="43.587" y2="0.146" xlink:href="#linear-gradient-3"/>
    <filter id="椭圆_291" x="75.246" y="8.852" width="102.394" height="102.393" filterUnits="userSpaceOnUse">
      <feOffset dy="3" input="SourceAlpha"/>
      <feGaussianBlur stdDeviation="6" result="blur-6"/>
      <feFlood flood-color="#a21a4d" flood-opacity="0.502"/>
      <feComposite operator="in" in2="blur-6"/>
      <feComposite in="SourceGraphic"/>
    </filter>
    <filter id="椭圆_292" x="453.689" y="340.819" width="58.131" height="58.131" filterUnits="userSpaceOnUse">
      <feOffset dy="3" input="SourceAlpha"/>
      <feGaussianBlur stdDeviation="6" result="blur-7"/>
      <feFlood flood-color="#a21a4d" flood-opacity="0.502"/>
      <feComposite operator="in" in2="blur-7"/>
      <feComposite in="SourceGraphic"/>
    </filter>
    <linearGradient id="linear-gradient-11" x1="5.161" y1="0.564" x2="6.161" y2="0.564" gradientUnits="objectBoundingBox">
      <stop offset="0" stop-color="#ff8e8e"/>
      <stop offset="1" stop-color="#fed2a6"/>
    </linearGradient>
    <filter id="路径_43143" x="0" y="81.885" width="531.738" height="319.279" filterUnits="userSpaceOnUse">
      <feOffset dy="3" input="SourceAlpha"/>
      <feGaussianBlur stdDeviation="6" result="blur-8"/>
      <feFlood flood-color="#982039" flood-opacity="0.502"/>
      <feComposite operator="in" in2="blur-8"/>
      <feComposite in="SourceGraphic"/>
    </filter>
    <linearGradient id="linear-gradient-12" x1="31.767" y1="0.25" x2="32.633" y2="0.75" gradientUnits="objectBoundingBox">
      <stop offset="0" stop-color="#fff3a4"/>
      <stop offset="1" stop-color="#ffcda5"/>
    </linearGradient>
  </defs>
  <g id="组_19818" data-name="组 19818" transform="translate(-234.23 -137.141)">
    <g id="蒙版组_405" data-name="蒙版组 405" transform="translate(11 10)" clip-path="url(#clip-path)">
      <g id="组_17886" data-name="组 17886" transform="translate(1420.406 654.059) rotate(-131)">
        <g id="组_17881" data-name="组 17881" transform="translate(0 0)" opacity="0.75">
          <path id="路径_43123" data-name="路径 43123" d="M602.307,794.351c27.558,0,54.6-7.259,76.137-20.44,23.371-14.3,39.449-34.818,46.495-59.331,6.527-22.7,8.27-45.03,5.179-66.355-3-20.722-10.728-39.825-22.34-55.245a104.985,104.985,0,0,0-38.932-31.812c-16.413-7.856-35.127-11.84-55.618-11.84-4.86,0-9.878.229-14.914.68-9.37.839-18.591,1.265-27.407,1.265-26.668,0-50.364-3.8-70.431-11.285-20.766-7.752-32.555-17.562-38.787-24.427-23.407-25.788-47.67-48.934-86.938-48.934a109.735,109.735,0,0,0-17.046,1.389c-21.089,3.334-39.811,15.123-55.643,35.04-13.921,17.512-22.731,37.759-27.672,51.661-15.79,44.434-35.357,67.073-72.191,83.527-23.279,10.4-38.333,26.957-43.535,47.888-5.4,21.723.6,45.814,16.455,66.1,12.3,15.729,30.727,23.706,54.793,23.707,38.614,0,85.428-21.115,114.693-42.037,16.506-11.8,42.476-25.872,72.451-25.872,29.9,0,56.884,13.87,80.192,41.222,24.423,28.662,62.716,45.1,105.06,45.1Zm0,.886c-39.529,0-79.535-14.666-105.733-45.412-25.223-29.6-52.855-40.911-79.518-40.911-25.939,0-50.965,10.711-71.937,25.707-27.551,19.7-74.832,42.206-115.217,42.2-21.96,0-41.889-6.661-55.48-24.047-29.772-38.087-25.893-91.529,27.417-115.341,34.342-15.341,54.929-35.774,71.718-83.015,10.562-29.719,35.6-79.628,84.013-87.277a109.805,109.805,0,0,1,17.184-1.4c40.119,0,65,24.335,87.595,49.223,15.688,17.282,50.635,35.426,108.562,35.423,8.6,0,17.708-.4,27.327-1.261q7.7-.69,14.994-.684c92.34,0,137.2,80.689,112.562,166.382-15.052,52.358-68.811,80.412-123.484,80.412Z" transform="translate(-155.855 -465.742)" fill="#ff2770"/>
        </g>
        <g transform="matrix(-0.66, 0.75, -0.75, -0.66, 1183.09, -557.83)" filter="url(#路径_43124)">
          <path id="路径_43124-2" data-name="路径 43124" d="M694.432,533.314c-38.888-20.012-72.882-51.222-87.045-93.2-16.4-48.62-33.273-76.809-107.8-70.622C423.652,375.793,333.528,439.63,300.719,492c-32.542,51.939-48.061,133.664.074,194.144s111.746,59.039,151.921,31.174,115.837-51.4,198.2-55.729,102.434-43.233,102.445-63.9C753.37,568.346,726.064,549.591,694.432,533.314Z" transform="translate(1066.79 910.35) rotate(-131)" opacity="0.75" fill="url(#linear-gradient)"/>
        </g>
        <path id="路径_43125" data-name="路径 43125" d="M388.929,566.924C350.554,613.6,337.36,674.253,352.782,732.946c17.194,65.443,100.961,94.571,163.54,40.592S601.531,704.23,670.9,720.822c91.012,21.768,132.63-4.481,153.173-38.528,22.547-37.369,6.925-110.226-78.544-83.112-66.385,21.061-213.65,25.938-101.784-65.13,35.827-29.166-36.6-60.691-108.494-48.243C495.629,492.669,430.581,516.261,388.929,566.924Z" transform="translate(-235.824 -482.24)" opacity="0.75" fill="url(#linear-gradient-2)"/>
        <g transform="matrix(-0.66, 0.75, -0.75, -0.66, 1183.09, -557.83)" filter="url(#椭圆_287)">
          <ellipse id="椭圆_287-2" data-name="椭圆 287" cx="33.197" cy="33.197" rx="33.197" ry="33.197" transform="translate(1382.23 266.35) rotate(-131)" opacity="0.75" fill="url(#linear-gradient-3)"/>
        </g>
        <ellipse id="椭圆_288" data-name="椭圆 288" cx="11.066" cy="11.066" rx="11.066" ry="11.066" transform="translate(453.69 22.909)" opacity="0.75" fill="url(#linear-gradient-4)"/>
        <g transform="matrix(-0.66, 0.75, -0.75, -0.66, 1183.09, -557.83)" filter="url(#路径_43126)">
          <path id="路径_43126-2" data-name="路径 43126" d="M257.047,585.946c-14.433,40.615-32.134,58.182-61.66,71.37-45.831,20.472-49.166,66.418-23.571,99.164,33.174,42.438,110.19,10.535,146.756-15.609S406,703.737,448.785,753.943c53.677,63,174.77,47.468,197.066-30.091S624.245,573.508,536.187,581.394c-64,5.732-101.34-12.307-116.83-29.369-22.056-24.3-46.645-47.98-90.081-41.116C287.655,517.487,266.127,560.4,257.047,585.946Z" transform="translate(930.37 965.36) rotate(-131)" opacity="0.75" fill="url(#linear-gradient-5)"/>
        </g>
        <ellipse id="椭圆_289" data-name="椭圆 289" cx="44.262" cy="44.262" rx="44.262" ry="44.262" transform="translate(79.673 157.909)" opacity="0.5" fill="url(#linear-gradient-6)"/>
      </g>
    </g>
    <g id="组_17890" data-name="组 17890" transform="translate(252.229 152.141)">
      <g id="组_17887" data-name="组 17887" transform="translate(0 56.365)" opacity="0.75">
        <path id="路径_43140" data-name="路径 43140" d="M602.307,466.628c27.558,0,54.6,7.259,76.137,20.44,23.371,14.3,39.449,34.818,46.495,59.331,6.527,22.7,8.27,45.03,5.179,66.355-3,20.722-10.728,39.825-22.34,55.245a104.985,104.985,0,0,1-38.932,31.812c-16.413,7.856-35.127,11.84-55.619,11.84-4.86,0-9.878-.229-14.914-.68-9.37-.839-18.591-1.265-27.407-1.265-26.668,0-50.364,3.8-70.431,11.285-20.766,7.752-32.555,17.562-38.787,24.427-23.407,25.788-47.67,48.934-86.938,48.934a109.735,109.735,0,0,1-17.046-1.389c-21.089-3.334-39.811-15.123-55.643-35.04-13.921-17.512-22.731-37.759-27.672-51.661-15.79-44.434-35.357-67.073-72.191-83.527-23.279-10.4-38.333-26.957-43.535-47.888-5.4-21.723.6-45.814,16.455-66.1,12.3-15.729,30.727-23.706,54.793-23.707,38.614,0,85.428,21.115,114.693,42.037,16.506,11.8,42.476,25.872,72.451,25.872,29.9,0,56.884-13.87,80.192-41.222,24.423-28.662,62.716-45.1,105.06-45.1Zm0-.886c-39.529,0-79.535,14.666-105.733,45.412-25.223,29.6-52.855,40.911-79.518,40.911-25.939,0-50.965-10.711-71.937-25.707-27.551-19.7-74.832-42.206-115.217-42.2-21.96,0-41.889,6.661-55.48,24.047-29.772,38.087-25.893,91.529,27.417,115.341,34.342,15.341,54.929,35.774,71.718,83.015,10.562,29.719,35.6,79.628,84.013,87.277a109.805,109.805,0,0,0,17.184,1.4c40.119,0,65-24.335,87.595-49.223,15.688-17.282,50.635-35.426,108.561-35.423,8.6,0,17.708.4,27.327,1.261,5.133.46,10.122.684,14.994.684,92.34,0,137.2-80.689,112.562-166.382-15.052-52.358-68.811-80.412-123.483-80.412Z" transform="translate(-155.855 -465.742)" fill="#ff2770"/>
      </g>
      <g transform="matrix(1, 0, 0, 1, -18, -15)" filter="url(#路径_43141)">
        <path id="路径_43141-2" data-name="路径 43141" d="M694.432,571.148c-38.888,20.012-72.882,51.222-87.045,93.2-16.4,48.62-33.273,76.809-107.8,70.622-75.932-6.3-166.056-70.141-198.865-122.508-32.542-51.939-48.061-133.664.074-194.144s111.745-59.039,151.921-31.174,115.837,51.4,198.2,55.729,102.434,43.233,102.445,63.9C753.37,536.116,726.064,554.87,694.432,571.148Z" transform="translate(-185.84 -353.64)" opacity="0.75" fill="url(#linear-gradient-7)"/>
      </g>
      <g transform="matrix(1, 0, 0, 1, -18, -15)" filter="url(#路径_43142)">
        <path id="路径_43142-2" data-name="路径 43142" d="M388.93,717.8c-38.376-46.677-51.569-107.328-36.147-166.022,17.194-65.443,100.961-94.571,163.54-40.592S601.531,580.495,670.9,563.9c91.012-21.768,132.63,4.481,153.173,38.528C846.619,639.8,831,712.656,745.527,685.542c-66.385-21.061-213.65-25.938-101.784,65.13,35.827,29.166-36.6,60.691-108.494,48.243C495.629,792.055,430.581,768.463,388.93,717.8Z" transform="translate(-217.82 -401.62)" opacity="0.75" fill="url(#linear-gradient-8)"/>
      </g>
      <g transform="matrix(1, 0, 0, 1, -18, -15)" filter="url(#椭圆_291)">
        <ellipse id="椭圆_291-2" data-name="椭圆 291" cx="33.197" cy="33.197" rx="33.197" ry="33.197" transform="translate(93.25 23.85)" opacity="0.75" fill="url(#linear-gradient-9)"/>
      </g>
      <g transform="matrix(1, 0, 0, 1, -18, -15)" filter="url(#椭圆_292)">
        <ellipse id="椭圆_292-2" data-name="椭圆 292" cx="11.066" cy="11.066" rx="11.066" ry="11.066" transform="translate(471.69 355.82)" opacity="0.75" fill="url(#linear-gradient-9)"/>
      </g>
      <g transform="matrix(1, 0, 0, 1, -18, -15)" filter="url(#路径_43143)">
        <path id="路径_43143-2" data-name="路径 43143" d="M257.047,716.744c-14.433-40.615-32.134-58.182-61.66-71.37-45.831-20.472-49.166-66.418-23.571-99.164,33.174-42.438,110.19-10.535,146.756,15.609S406,598.953,448.785,548.747c53.677-63,174.77-47.468,197.066,30.091S624.245,729.182,536.187,721.3c-64-5.732-101.34,12.307-116.83,29.369-22.056,24.3-46.645,47.98-90.081,41.116C287.655,785.2,266.127,742.295,257.047,716.744Z" transform="translate(-137.86 -412.82)" opacity="0.75" fill="url(#linear-gradient-11)"/>
      </g>
      <ellipse id="椭圆_293" data-name="椭圆 293" cx="25.038" cy="25.038" rx="25.038" ry="25.038" transform="translate(85.618 183.587)" opacity="0.5" fill="url(#linear-gradient-12)"/>
    </g>
  </g>
</svg>
