<svg xmlns="http://www.w3.org/2000/svg" xmlns:xlink="http://www.w3.org/1999/xlink" width="24" height="24" viewBox="0 0 24 24">
  <defs>
    <clipPath id="clip-path">
      <rect id="矩形_4081" data-name="矩形 4081" width="24" height="24" transform="translate(26 939)" fill="#fff"/>
    </clipPath>
  </defs>
  <g id="icon_news_w" transform="translate(-26 -939)" clip-path="url(#clip-path)">
    <g id="Live_1_" transform="translate(26 943)">
      <g id="组_17276" data-name="组 17276" transform="translate(0 0)">
        <g id="路径_32528" data-name="路径 32528">
          <path id="路径_51320" data-name="路径 51320" d="M93.766,15.25a.957.957,0,0,1-.807-.5A14.522,14.522,0,0,1,92.959.4a.958.958,0,0,1,.808-.5.881.881,0,0,1,.61.254,1.415,1.415,0,0,1,.2,1.681,11.61,11.61,0,0,0,0,11.482,1.415,1.415,0,0,1-.2,1.681A.884.884,0,0,1,93.766,15.25Z" transform="translate(-90.922 0.24)" fill="#fff"/>
          <path id="路径_51321" data-name="路径 51321" d="M93.805,15.15a.749.749,0,0,0,.515-.215,1.267,1.267,0,0,0,.171-1.508,11.756,11.756,0,0,1,0-11.625A1.267,1.267,0,0,0,94.321.295a.746.746,0,0,0-.514-.216.814.814,0,0,0-.688.43,14.375,14.375,0,0,0,0,14.211.811.811,0,0,0,.687.43m0,.279a1.1,1.1,0,0,1-.927-.566,14.667,14.667,0,0,1,0-14.5A1.1,1.1,0,0,1,93.806-.2a1.032,1.032,0,0,1,.706.292,1.54,1.54,0,0,1,.219,1.854,11.465,11.465,0,0,0,0,11.338,1.54,1.54,0,0,1-.219,1.854A1.034,1.034,0,0,1,93.805,15.429Z" transform="translate(-90.962 0.2)" fill="#fff"/>
        </g>
      </g>
      <g id="组_17277" data-name="组 17277" transform="translate(20.017 0.001)">
        <g id="路径_32529" data-name="路径 32529" transform="translate(0 0)">
          <path id="路径_51322" data-name="路径 51322" d="M361.914,15.256A.882.882,0,0,1,361.3,15a1.415,1.415,0,0,1-.2-1.681,11.613,11.613,0,0,0,0-11.482A1.417,1.417,0,0,1,361.3.159a.887.887,0,0,1,.611-.253.955.955,0,0,1,.808.5,14.517,14.517,0,0,1,0,14.355A.955.955,0,0,1,361.914,15.256Z" transform="translate(-360.775 0.234)" fill="#fff"/>
          <path id="路径_51323" data-name="路径 51323" d="M361.955,15.156a.813.813,0,0,0,.687-.43,14.378,14.378,0,0,0,0-14.211.814.814,0,0,0-.689-.43.747.747,0,0,0-.514.215,1.266,1.266,0,0,0-.17,1.508,11.759,11.759,0,0,1,0,11.625,1.266,1.266,0,0,0,.17,1.508.751.751,0,0,0,.516.215m0,.279a1.035,1.035,0,0,1-.707-.291,1.54,1.54,0,0,1-.219-1.855,11.467,11.467,0,0,0,0-11.338A1.54,1.54,0,0,1,361.248.1a1.032,1.032,0,0,1,.706-.291,1.093,1.093,0,0,1,.928.566,14.662,14.662,0,0,1,0,14.5A1.092,1.092,0,0,1,361.955,15.436Z" transform="translate(-360.816 0.194)" fill="#fff"/>
        </g>
      </g>
      <g id="组_17278" data-name="组 17278" transform="translate(4.41 1.719)">
        <g id="路径_32530" data-name="路径 32530" transform="translate(0 0)">
          <path id="路径_51324" data-name="路径 51324" d="M153.141,41.83a.92.92,0,0,1-.757-.45,10.527,10.527,0,0,1,0-11.016.922.922,0,0,1,.757-.449.882.882,0,0,1,.68.346,1.619,1.619,0,0,1,.075,1.809,7.272,7.272,0,0,0,0,7.6,1.619,1.619,0,0,1-.075,1.809A.883.883,0,0,1,153.141,41.83Z" transform="translate(-150.69 -29.774)" fill="#fff"/>
          <path id="路径_51325" data-name="路径 51325" d="M153.181,41.73a.745.745,0,0,0,.573-.3,1.473,1.473,0,0,0,.067-1.643,7.411,7.411,0,0,1,0-7.757,1.473,1.473,0,0,0-.067-1.643.744.744,0,0,0-.573-.3.779.779,0,0,0-.64.386,10.376,10.376,0,0,0,0,10.862.777.777,0,0,0,.64.388m0,.279a1.056,1.056,0,0,1-.873-.513,10.673,10.673,0,0,1,0-11.17,1.057,1.057,0,0,1,.873-.512,1.018,1.018,0,0,1,.788.4,1.746,1.746,0,0,1,.085,1.975,7.12,7.12,0,0,0,0,7.449,1.746,1.746,0,0,1-.085,1.975A1.02,1.02,0,0,1,153.181,42.009Z" transform="translate(-150.729 -29.814)" fill="#fff"/>
        </g>
      </g>
      <g id="组_17279" data-name="组 17279" transform="translate(16 1.717)">
        <g id="路径_32531" data-name="路径 32531" transform="translate(0 0)">
          <path id="路径_51326" data-name="路径 51326" d="M308.99,41.819a.883.883,0,0,1-.68-.348,1.617,1.617,0,0,1-.075-1.809,7.272,7.272,0,0,0,0-7.6,1.619,1.619,0,0,1,.075-1.809.883.883,0,0,1,.68-.347.918.918,0,0,1,.756.45,10.521,10.521,0,0,1,0,11.016A.918.918,0,0,1,308.99,41.819Z" transform="translate(-307.851 -29.763)" fill="#fff"/>
          <path id="路径_51327" data-name="路径 51327" d="M309.031,41.719a.779.779,0,0,0,.64-.388,10.382,10.382,0,0,0,0-10.862.777.777,0,0,0-.64-.387.745.745,0,0,0-.573.3,1.47,1.47,0,0,0-.067,1.643,7.411,7.411,0,0,1,0,7.757,1.47,1.47,0,0,0,.067,1.643.745.745,0,0,0,.573.3m0,.279a1.018,1.018,0,0,1-.788-.4,1.744,1.744,0,0,1-.085-1.975,7.12,7.12,0,0,0,0-7.449,1.744,1.744,0,0,1,.085-1.975,1.02,1.02,0,0,1,.788-.4,1.056,1.056,0,0,1,.873.513,10.672,10.672,0,0,1,0,11.17A1.057,1.057,0,0,1,309.031,42Z" transform="translate(-307.892 -29.803)" fill="#fff"/>
        </g>
      </g>
      <g id="组_17280" data-name="组 17280" transform="translate(9.145 4.961)">
        <g id="路径_32532" data-name="路径 32532" transform="translate(0 0)">
          <path id="路径_51328" data-name="路径 51328" d="M213.616,65.331a2.715,2.715,0,1,1,2.714-2.715A2.718,2.718,0,0,1,213.616,65.331Z" transform="translate(-210.76 -59.76)" fill="#fff"/>
          <path id="路径_51329" data-name="路径 51329" d="M213.655,65.231a2.576,2.576,0,1,0-2.576-2.576,2.578,2.578,0,0,0,2.576,2.576m0,.279a2.855,2.855,0,1,1,2.854-2.855A2.859,2.859,0,0,1,213.655,65.51Z" transform="translate(-210.8 -59.8)" fill="#fff"/>
        </g>
      </g>
    </g>
  </g>
</svg>
