<svg xmlns="http://www.w3.org/2000/svg" xmlns:xlink="http://www.w3.org/1999/xlink" width="24" height="24" viewBox="0 0 24 24">
  <defs>
    <linearGradient id="linear-gradient" x1="1" y1="1.105" x2="0" gradientUnits="objectBoundingBox">
      <stop offset="0" stop-color="#ee2757"/>
      <stop offset="1" stop-color="#f95147"/>
    </linearGradient>
    <clipPath id="clip-path">
      <rect id="矩形_3778" data-name="矩形 3778" width="24" height="24" transform="translate(26 939)" fill="url(#linear-gradient)"/>
    </clipPath>
  </defs>
  <g id="icon_register_r" transform="translate(-26 -939)" clip-path="url(#clip-path)">
    <g id="XMLID_455_" transform="translate(27 938.765)">
      <path id="XMLID_458_" d="M1.006,128.152H9.43A7.042,7.042,0,1,0,9.3,119.6,7.713,7.713,0,0,0,0,127.146,1.006,1.006,0,0,0,1.006,128.152Zm13.951-9.39a5.03,5.03,0,1,1-5.03,5.031A5.036,5.036,0,0,1,14.957,118.762Z" transform="translate(0 -107.753)" fill="url(#linear-gradient)"/>
      <path id="XMLID_461_" d="M56.458,1.25a4.209,4.209,0,1,0,4.209,4.209A4.214,4.214,0,0,0,56.458,1.25Z" transform="translate(-48.744)" fill="url(#linear-gradient)"/>
      <path id="XMLID_462_" d="M179.006,180.774h1.006v1.006a1.006,1.006,0,0,0,2.012,0v-1.006h1.006a1.006,1.006,0,0,0,0-2.012h-1.006v-1.006a1.006,1.006,0,0,0-2.012,0v1.006h-1.006a1.006,1.006,0,0,0,0,2.012Z" transform="translate(-166.061 -163.729)" fill="url(#linear-gradient)"/>
    </g>
  </g>
</svg>
