<svg xmlns="http://www.w3.org/2000/svg" xmlns:xlink="http://www.w3.org/1999/xlink" width="24" height="24" viewBox="0 0 24 24">
  <defs>
    <linearGradient id="linear-gradient" x1="1" y1="1.105" x2="0" gradientUnits="objectBoundingBox">
      <stop offset="0" stop-color="#ee2757"/>
      <stop offset="1" stop-color="#f95147"/>
    </linearGradient>
    <clipPath id="clip-path">
      <rect id="矩形_4084" data-name="矩形 4084" width="24" height="24" transform="translate(24 937)" fill="url(#linear-gradient)"/>
    </clipPath>
  </defs>
  <g id="icon_deposit_r" transform="translate(-24 -937)" clip-path="url(#clip-path)">
    <g id="money-bag_1_" data-name="money-bag (1)" transform="translate(25 938)">
      <path id="路径_51336" data-name="路径 51336" d="M8.422,167.469a15.277,15.277,0,0,0,4.554-.554,2.209,2.209,0,0,1,.64-2.024,2.244,2.244,0,0,1,0-3.223,2.244,2.244,0,0,1,0-3.223,2.24,2.24,0,0,1,.246-3.426,9.141,9.141,0,0,0-1.223-.942,1.263,1.263,0,0,0,.295-.788A1.289,1.289,0,0,0,11.645,152H5.2a1.289,1.289,0,0,0-1.289,1.289,1.263,1.263,0,0,0,.293.787A9.225,9.225,0,0,0,0,161.668c0,5.2,4.825,5.8,8.422,5.8Zm-.007-6.256a1.929,1.929,0,0,1-.638-3.751v-.95a.645.645,0,0,1,1.289,0v.954a1.93,1.93,0,0,1,1.282,1.813.645.645,0,1,1-1.289,0,.645.645,0,1,0-.645.645,1.929,1.929,0,0,1,.651,3.746v.577a.645.645,0,0,1-1.289,0v-.572a1.93,1.93,0,0,1-1.3-1.817.645.645,0,0,1,1.289,0,.645.645,0,1,0,.645-.645Zm0,0" transform="translate(0 -145.469)" fill="url(#linear-gradient)"/>
      <path id="路径_51337" data-name="路径 51337" d="M337.811,467h-5.844a.967.967,0,0,0,0,1.934h5.844a.967.967,0,0,0,0-1.934Zm0,0" transform="translate(-316.777 -446.934)" fill="url(#linear-gradient)"/>
      <path id="路径_51338" data-name="路径 51338" d="M337.811,392h-5.844a.967.967,0,0,0,0,1.934h5.844a.967.967,0,0,0,0-1.934Zm0,0" transform="translate(-316.777 -375.156)" fill="url(#linear-gradient)"/>
      <path id="路径_51339" data-name="路径 51339" d="M337.811,317h-5.844a.967.967,0,0,0,0,1.934h5.844a.967.967,0,0,0,0-1.934Zm0,0" transform="translate(-316.777 -303.379)" fill="url(#linear-gradient)"/>
      <path id="路径_51340" data-name="路径 51340" d="M337.811,242h-5.844a.967.967,0,0,0,0,1.934h5.844a.967.967,0,0,0,0-1.934Zm0,0" transform="translate(-316.777 -231.602)" fill="url(#linear-gradient)"/>
      <path id="路径_51341" data-name="路径 51341" d="M97.326,1.289a1.928,1.928,0,0,0-3.638,0H91.644a.644.644,0,0,0-.611.848l1.006,3.1h6.944l1.006-3.1a.644.644,0,0,0-.611-.848Zm0,0" transform="translate(-87.089)" fill="url(#linear-gradient)"/>
    </g>
  </g>
</svg>
