<svg xmlns="http://www.w3.org/2000/svg" xmlns:xlink="http://www.w3.org/1999/xlink" width="24" height="24" viewBox="0 0 24 24">
  <defs>
    <linearGradient id="linear-gradient" x1="1" y1="1.105" x2="0" gradientUnits="objectBoundingBox">
      <stop offset="0" stop-color="#ee2757"/>
      <stop offset="1" stop-color="#f95147"/>
    </linearGradient>
    <clipPath id="clip-path">
      <rect id="矩形_3777" data-name="矩形 3777" width="24" height="24" transform="translate(26 939)" fill="url(#linear-gradient)"/>
    </clipPath>
  </defs>
  <g id="icon_game_r" transform="translate(-26 -939)" clip-path="url(#clip-path)">
    <path id="game-controller-svgrepo-com" d="M39.391,88.268c-1.061-4.795-2.657-7.354-5.024-8.053A5.357,5.357,0,0,0,32.834,80a6.894,6.894,0,0,0-1.914.344,9.373,9.373,0,0,1-5.774,0A6.879,6.879,0,0,0,23.233,80a5.787,5.787,0,0,0-1.587.216c-2.355.7-3.95,3.254-5.026,8.05-1.157,5.161-.588,8.42,1.6,9.176a2.831,2.831,0,0,0,.932.161c1.5,0,2.7-1.247,3.517-2.267.927-1.155,2.011-1.741,5.367-1.741,3,0,4.238.407,5.31,1.741a7.316,7.316,0,0,0,1.945,1.8,2.932,2.932,0,0,0,2.508.319c1.291-.441,2.031-1.605,2.2-3.462A19.555,19.555,0,0,0,39.391,88.268ZM25.633,88h-1.6v1.6a.8.8,0,1,1-1.6,0V88h-1.6a.8.8,0,0,1,0-1.6h1.6V84.8a.8.8,0,1,1,1.6,0v1.6h1.6a.8.8,0,0,1,0,1.6Zm4.2.2a1,1,0,1,1,1-1A1,1,0,0,1,29.833,88.2Zm2.2,2.2a1,1,0,1,1,1-1A1,1,0,0,1,32.034,90.4Zm0-4.4a1,1,0,1,1,1-1,1,1,0,0,1-1,1Zm2.2,2.2a1,1,0,1,1,1-1A1,1,0,0,1,34.234,88.2Z" transform="translate(9.966 862.398)" fill="url(#linear-gradient)"/>
  </g>
</svg>
