<svg xmlns="http://www.w3.org/2000/svg" xmlns:xlink="http://www.w3.org/1999/xlink" width="50" height="50" viewBox="0 0 50 50">
  <defs>
    <linearGradient id="linear-gradient" x1="0.328" y1="0.069" x2="0.73" y2="0.931" gradientUnits="objectBoundingBox">
      <stop offset="0" stop-color="#55b8d5"/>
      <stop offset="0.301" stop-color="#208dac"/>
      <stop offset="1" stop-color="#076580"/>
    </linearGradient>
  </defs>
  <g id="icon_gamer" transform="translate(2.615 3)">
    <g id="icon_line" transform="translate(0.385)">
      <g id="椭圆_212" data-name="椭圆 212" transform="translate(0)" stroke="#309ab8" stroke-width="3" fill="url(#linear-gradient)">
        <circle cx="22" cy="22" r="22" stroke="none"/>
        <circle cx="22" cy="22" r="23.5" fill="none"/>
      </g>
    </g>
    <g id="组_19828" data-name="组 19828" transform="translate(4.385 8)">
      <path id="路径_51273" data-name="路径 51273" d="M678.569,86.8c.5-.127.993-.286,1.5-.372.749-.127,1.505-.211,2.26-.3.669-.076,1.34-.129,2.01-.192l2.4-.227c.7-.067,1.4-.136,2.109-.222a33.189,33.189,0,0,0-4.386-1.225c-1.489-.3-2.985-.567-4.495-.852.115-.026.227-.053.341-.076a29.494,29.494,0,0,1,6.2-.414c1.708.011,3.417.034,5.125.079,1.026.027,2.053.1,3.077.169a32.491,32.491,0,0,1,4.19.5,22.39,22.39,0,0,1,4.029,1.19c.876.359,1.734.762,2.6,1.154a.835.835,0,0,0,.725.055.2.2,0,0,1,.183.078,1.869,1.869,0,0,0,.483.732.2.2,0,0,1,.054.128c.019.267.032.535.045.8a.411.411,0,0,1-.035.1.95.95,0,0,1-.094-.171,2.394,2.394,0,0,0-.432-.763c-.174-.237-.288-.224-.412.037a1.647,1.647,0,0,1-.1.225,1.125,1.125,0,0,0-.047,1.2,1.666,1.666,0,0,1,.074.212c0,.008-.012.022-.036.063l-.4-.541c-.1.21-.188.41-.278.612-.3.675-.577,1.36-.9,2.023a.911.911,0,0,0,.067.955l.011.017c.253.377.128.376.658.24l-.182-.151.726-.133-.277-.246.57-.205-.263-.021c.474-.358,1.079-.491,1.438-1.028-.585.005-1.16-.01-1.732-.062V90.1l1.96-.372a4.154,4.154,0,0,0-1.651-.249l-.005-.072a3.621,3.621,0,0,1,.561-.114c.68-.033,1.36-.058,2.04-.06.144,0,.285.119.432.169.294.1.587.2.887.281a.529.529,0,0,1,.282.6c-.22-.066-.431-.142-.649-.193a.4.4,0,0,0-.481.279.674.674,0,0,0,.736.393c-.148.283-.3.32-.528.22a2.627,2.627,0,0,0-.57-.13.178.178,0,0,0-.132.046,1.3,1.3,0,0,0-.528.8,2.38,2.38,0,0,1-.27,1.159c.313-.035.578-.064.844-.095a.744.744,0,0,0,.16-.031c.542-.19.829.236,1.175.511a.213.213,0,0,1,.025.183c-.055.17-.128.334-.195.5l-.041-.05-.437.365-.049-.464-.488.363.065-.575c-.443.166-.857.316-1.267.477a1.147,1.147,0,0,1-.626.1,1.249,1.249,0,0,0-1.092.26c-.234.209-.508.371-.755.566a.271.271,0,0,0-.1.2,2.381,2.381,0,0,1-1.029,2.2,1.751,1.751,0,0,1-1.233.448.814.814,0,0,0-.858.68,6.026,6.026,0,0,1,6.4,3.637l-.052.072a2.379,2.379,0,0,1-.162-.208,5.17,5.17,0,0,0-3.422-2.448,4.617,4.617,0,0,0-4.458,1.328,10.152,10.152,0,0,0-.694.892.33.33,0,0,1-.2.136c-.6.012-1.2.01-1.8.011a.717.717,0,0,1-.134-.042c.257-.4.482-.787.751-1.144a5.831,5.831,0,0,1,2.182-1.733.438.438,0,0,0,.2-.251c.075-.265.11-.541.179-.808a1.273,1.273,0,0,1,.167-.364c.117-.18.242-.236.45-.074a.457.457,0,0,0,.422-.054,1.18,1.18,0,0,0,.437-.728c.041-.206.1-.408.156-.625-.2.1-.405.2-.612.3a11.831,11.831,0,0,1-3.326,1.1,8.511,8.511,0,0,1-4.117-.215c-.764-.245-1.511-.542-2.277-.781a7.471,7.471,0,0,0-2.9-.3c-.662.058-1.322.149-1.983.223a.485.485,0,0,1-.245-.034,4.758,4.758,0,0,1,1.961-.595l-.695-.351.023-.087c.156.024.315.038.469.073a9.492,9.492,0,0,0,2.051.324h.151l-.655-.453.032-.074,2.119.686.016-.039-.607-.46.053-.095c.617.17,1.166.525,1.8.707-.094-.168-.193-.333-.28-.5a1.019,1.019,0,0,1-.056-.219.766.766,0,0,1,.217.063c.165.108.325.227.48.351a2.531,2.531,0,0,0,1.172.592c.469.075.935.169,1.406.223a2.764,2.764,0,0,0,1.161-.185c.388-.125.778-.245,1.208-.379l-.728-.309.013-.07c.789-.132,1.6-.005,2.387-.2l0-.063-.757-.182,0-.086.709-.121c.288-.048.577-.09.864-.144.169-.031.167-.039.195-.238a8.576,8.576,0,0,1-1-.052l0-.065a.72.72,0,0,1,.119-.049c.523-.117,1.048-.226,1.569-.351a.677.677,0,0,0,.288-.164c.143-.134.267-.289.416-.454a2.421,2.421,0,0,0-1.306-.237,7.55,7.55,0,0,0-2.2.508,8.129,8.129,0,0,0-2.484,1.636q-.141.134-.283.266c-.009.008-.025.008-.081.024.07-.169.132-.313.19-.458a5.134,5.134,0,0,0,.423-1.785,1.359,1.359,0,0,0-1.594-1.524,10.957,10.957,0,0,0-2.893.662,14.481,14.481,0,0,0-2.726,1.305.159.159,0,0,1-.143.008,1.813,1.813,0,0,1,.142-.159c.419-.374.865-.72,1.253-1.124a3.024,3.024,0,0,0,.855-1.509,1.743,1.743,0,0,0-.428-1.555,4.833,4.833,0,0,0-1.936-1.233,17.427,17.427,0,0,0-3.67-.945c-.724-.119-1.443-.265-2.169-.366a16.4,16.4,0,0,0-3.317-.176c-.5.033-1,.078-1.5.115a1.309,1.309,0,0,1-.192-.013Zm29.473,2.816a.352.352,0,0,0,.531.125Z" transform="translate(-678.569 -82.922)" fill="#fff"/>
      <path id="路径_51274" data-name="路径 51274" d="M719.438,556.881a.623.623,0,0,1-.605.628c-.1.009-.207.01-.311.01l-5.569,0c-.374,0-.725-.041-.905-.439a.605.605,0,0,1-.02-.477c.323-.956.629-1.919.939-2.88.157-.487.32-.972.465-1.463a.2.2,0,0,1,.229-.179q3.314,0,6.628,0c.248,0,.26.014.191.246-.3,1.02-.614,2.038-.915,3.059a.844.844,0,0,1-.644.586,3.724,3.724,0,0,1-.911.154c-1.371.016-2.743.007-4.114.006-.232,0-.331.08-.349.287a.353.353,0,0,0,.3.428,1.309,1.309,0,0,0,.227.016h5.174C719.305,556.868,719.365,556.876,719.438,556.881Zm-1.229-4.023v0h-.436a.32.32,0,0,0-.336.245c-.212.664-.431,1.326-.645,1.99-.064.2-.012.278.207.289a5.639,5.639,0,0,0,.664,0,.638.638,0,0,0,.636-.442c.193-.605.384-1.211.584-1.814.059-.179-.018-.253-.176-.265S718.375,552.858,718.209,552.858Zm-2.82,0v-.008c-.1,0-.194,0-.29,0-.356,0-.387.036-.5.369-.2.616-.411,1.23-.619,1.845-.068.2-.009.306.207.315.255.011.512,0,.767.006a.387.387,0,0,0,.427-.3c.2-.652.427-1.3.641-1.948.062-.19.021-.257-.18-.273C715.694,552.852,715.541,552.862,715.389,552.862Z" transform="translate(-710.599 -532.307)" fill="#fff"/>
      <path id="路径_51275" data-name="路径 51275" d="M905.7,551.878c.056.348.11.667.159.987a.481.481,0,0,0,.2.385.208.208,0,0,1,.057.165c-.005.081-.051.158-.062.239-.024.182-.092.287-.3.28-.065,0-.168.1-.194.171a.227.227,0,0,1-.26.171c-1.225-.005-2.451,0-3.677-.007-.052,0-.151-.071-.148-.1.021-.161-.034-.241-.2-.244s-.348-.034-.417.2c-.212.715-.432,1.428-.648,2.143q-.063.208-.116.419a.809.809,0,0,1-.811.619c-.684.032-1.37.014-2.055.021-.135,0-.169-.035-.126-.172q.612-1.957,1.215-3.918c.123-.4.241-.794.378-1.185a.276.276,0,0,1,.2-.154c.831-.012,1.662-.009,2.493-.013.183,0,.141.114.112.213-.092.318-.194.634-.284.953-.059.208.055.324.249.225a2.149,2.149,0,0,0,.559-.415c.264-.273.494-.578.745-.863a.326.326,0,0,1,.2-.116C903.882,551.875,904.788,551.878,905.7,551.878Zm-7.053,4.979a.3.3,0,0,0,.331-.226c.087-.24.159-.485.234-.729.328-1.062.656-2.124.976-3.188.025-.083.013-.233-.039-.27a.354.354,0,0,0-.3-.026.507.507,0,0,0-.217.252,5.454,5.454,0,0,0-.173.551q-.51,1.664-1.019,3.328C898.371,556.77,898.434,556.856,898.648,556.857Zm4.091-3.315a.57.57,0,0,0,.138.055c.566,0,1.133.006,1.7,0,.117,0,.152-.072.127-.183-.05-.229-.1-.459-.145-.688a.215.215,0,0,0-.25-.192c-.186.01-.373,0-.559.015a.359.359,0,0,0-.225.072C903.264,552.914,903.016,553.216,902.739,553.541Z" transform="translate(-888.194 -532.107)" fill="#fff"/>
      <path id="路径_51276" data-name="路径 51276" d="M1196.211,551.7c.651,0,1.3,0,1.953,0,.163,0,.209.05.165.21-.137.5-.263,1-.4,1.5-.038.145-.084.287.1.37a.1.1,0,0,1,.04.045,1.023,1.023,0,0,1-.255.692.532.532,0,0,0-.214.242c-.1.294-.175.6-.248.9-.015.063-.006.174.034.2.136.094.117.2.074.328-.031.091-.054.186-.082.278-.008.026-.023.072-.034.072-.275,0-.257.276-.392.4a.838.838,0,0,1-.464.193,10.379,10.379,0,0,1-1.059.007.27.27,0,0,1-.147-.086c.033-.087.066-.2.136-.239s.19,0,.285-.013a.559.559,0,0,0,.164-.089,1.591,1.591,0,0,0-.171-.11c-.028-.014-.068,0-.1,0H1193c-.256,0-.272-.015-.208-.256.14-.528.287-1.053.423-1.582a.241.241,0,0,0-.029-.2c-.106-.085-.088-.175-.061-.278s.051-.23.087-.342c.018-.055.053-.134.1-.147.2-.06.24-.223.286-.394.136-.514.286-1.026.419-1.541.038-.144.125-.16.245-.16.651,0,1.3,0,1.953,0Zm-.764,2.778h-.851a.339.339,0,0,0-.362.248c-.09.326-.165.656-.246.984a.184.184,0,0,0,.188.254,4.591,4.591,0,0,0,.518,0,.194.194,0,0,0,.205-.212c0-.076,0-.152,0-.228.009-.642.009-.638.648-.621.133,0,.166.054.162.173-.006.207-.006.415,0,.623a.259.259,0,0,0,.048.167.378.378,0,0,0,.556-.156q.126-.449.237-.9c.056-.227-.021-.325-.256-.329C1196.015,554.477,1195.731,554.481,1195.447,554.481Zm1.117-.687c.185,0,.265-.052.318-.231.089-.3.156-.616.253-.918.061-.189-.047-.267-.181-.269-.629-.011-1.258-.006-1.887.005a.264.264,0,0,0-.263.245c-.045.237-.117.468-.176.7-.116.462-.115.462.365.467s.466,0,.476-.462c.012-.547.012-.543.563-.545.135,0,.192.038.189.174,0,.166,0,.332,0,.5C1196.229,553.753,1196.274,553.8,1196.564,553.794Z" transform="translate(-1171.779 -531.937)" fill="#fff"/>
      <path id="路径_51277" data-name="路径 51277" d="M1402.817,556.21c-.025.088-.042.139-.054.191-.03.126.015.21.148.216a2,2,0,0,0,.536-.011.442.442,0,0,0,.269-.239c.1-.258.141-.534.221-.8.043-.141-.022-.2-.136-.221a2.025,2.025,0,0,0-.351-.023q-1.132,0-2.264,0c-.212,0-.234-.025-.187-.241.105-.479.105-.479.582-.478.748,0,1.5,0,2.244,0,.088,0,.2.008.259-.041a.512.512,0,0,0,.164-.294c.006-.046-.135-.146-.219-.16a2.846,2.846,0,0,0-.477-.008h-2.121c.063-.222.109-.412.175-.6.012-.033.1-.051.161-.051.409-.005.817,0,1.226-.006.287,0,.352-.055.427-.321.065-.232,0-.327-.245-.329-.388,0-.776-.009-1.163.006-.178.007-.233-.051-.181-.213.15-.467.036-.462.547-.442.325.012.651,0,.976,0,.177,0,.325-.03.394-.231.018-.052.128-.1.2-.1.228-.009.457,0,.685.012.05,0,.135.046.14.08.032.233.2.236.37.236q.53,0,1.059.005a1.374,1.374,0,0,1,.179.027c-.046.194-.079.375-.136.549-.013.038-.112.066-.173.067-.395.006-.79,0-1.184,0-.273,0-.355.077-.408.34-.046.225.016.308.254.311.4.005.8,0,1.2,0,.217,0,.241.028.191.243a1.145,1.145,0,0,0-.042.16c-.016.2-.119.273-.318.244-.146-.021-.3-.015-.371.153-.087.2-.013.321.2.351.1.014.2.038.3.058-.021.1-.041.2-.064.3-.007.034-.032.066-.032.1,0,.245-.128.272-.337.241-.239-.036-.337.044-.4.282-.093.34-.2.678-.264,1.023a.7.7,0,0,1-.672.63c-.535.039-1.075.01-1.626.01a.446.446,0,0,1,.007-.11c.064-.21.012-.3-.2-.314a3.209,3.209,0,0,0-.332,0,.889.889,0,0,1-1.007-.7c-.037-.108-.067-.219-.115-.378h.654c.222,0,.443,0,.665.008.056,0,.154.054.157.089C1402.348,556.137,1402.542,556.2,1402.817,556.21Z" transform="translate(-1371.376 -532.049)" fill="#fff"/>
      <path id="路径_51278" data-name="路径 51278" d="M1099.838,553.107c.04-.158.069-.307.118-.449a.217.217,0,0,1,.13-.13.343.343,0,0,0,.312-.331c.025-.235.15-.311.376-.288.192.019.387,0,.579.016.038,0,.085.063.1.107s-.017.078-.027.118c-.037.143-.09.293.107.364a.378.378,0,0,0,.482-.207c.048-.132.063-.315.157-.379s.28-.027.424-.033c.028,0,.055,0,.083,0,.426,0,.425,0,.349.413-.007.038-.009.1.01.115.205.114.092.273.061.414s-.056.3-.24.379c-.073.03-.122.159-.149.253-.157.544-.3,1.092-.458,1.636a.714.714,0,0,1-.181.29c-.206.2-.425.4-.643.588a.183.183,0,0,0-.038.287.636.636,0,0,1,.073.126.473.473,0,0,0,.484.312c.177-.009.2.081.165.238-.1.4-.1.4-.493.4-.1,0-.194,0-.291,0a.737.737,0,0,1-.687-.3.21.21,0,0,0-.363-.032,1.866,1.866,0,0,1-1.489.327c-.032,0-.087-.082-.088-.127,0-.065.047-.13.055-.2.026-.232.148-.288.376-.283a.872.872,0,0,0,.426-.177c.55-.346.573-.369.189-.883a.913.913,0,0,1-.075-.922c.121-.4.23-.795.34-1.193C1100.1,553.27,1100.095,553.269,1099.838,553.107Zm1.086,2.218a.382.382,0,0,0,.323-.278q.245-.813.468-1.632a.224.224,0,0,0-.053-.181.352.352,0,0,0-.552.115c-.167.548-.322,1.1-.471,1.653C1100.593,555.175,1100.723,555.322,1100.924,555.326Z" transform="translate(-1081.551 -532.117)" fill="#fff"/>
      <path id="路径_51279" data-name="路径 51279" d="M1321.343,556.036c.049-.251.092-.493.149-.732.009-.04.076-.075.123-.1a3.646,3.646,0,0,0,1.393-1.186,2.116,2.116,0,0,0,.223-.766c.007-.03-.042-.084-.077-.113a.393.393,0,0,0-.581.17.651.651,0,0,1-.679.47c.016-.258-.069-.5.123-.76a3.935,3.935,0,0,0,.35-.792c.034-.078.077-.2.132-.211a1.747,1.747,0,0,1,.452.007c.013,0,.03.081.027.124-.008.1-.176.231.043.3a.368.368,0,0,0,.478-.2,1.682,1.682,0,0,0,.091-.337c.018-.138.092-.165.214-.162.249.007.5.01.748,0,.143-.005.171.059.142.178-.018.074-.042.146-.061.219-.069.267-.047.3.227.316.04,0,.08,0,.17,0a5.736,5.736,0,0,1-.155.569c-.015.04-.133.059-.2.056a.309.309,0,0,0-.365.3.92.92,0,0,1-.036.141c-.066.227-.021.309.21.3.182-.009.181.074.154.2-.018.081-.044.16-.063.24-.033.144-.089.224-.268.2a.29.29,0,0,0-.338.258c-.183.739-.382,1.473-.566,2.212-.046.185-.109.286-.328.263a3.116,3.116,0,0,0-.664,0c-.2.022-.189-.076-.155-.207.078-.3.162-.6.234-.9a.867.867,0,0,0-.007-.23,1.733,1.733,0,0,0-.259.018c-.246.053-.49.118-.736.173A.479.479,0,0,1,1321.343,556.036Z" transform="translate(-1295.175 -531.985)" fill="#fff"/>
      <path id="路径_51280" data-name="路径 51280" d="M982.708,618.084h1.848c.232,0,.251.016.189.229-.179.617-.345,1.238-.556,1.843a.834.834,0,0,1-.4.414,1.73,1.73,0,0,1-.712.178c-1,.019-2.007.007-3.01.01-.155,0-.215-.042-.162-.21q.358-1.147.7-2.3c.036-.122.085-.169.213-.167C981.448,618.087,982.078,618.084,982.708,618.084Zm-.521,1.947h0a7.233,7.233,0,0,0,.767-.009.425.425,0,0,0,.3-.185,5.717,5.717,0,0,0,.253-.788c.042-.152-.028-.246-.187-.247q-.809-.006-1.619,0a.291.291,0,0,0-.3.232c-.068.239-.146.476-.214.715-.054.188.012.277.21.281C981.661,620.035,981.924,620.031,982.187,620.031Z" transform="translate(-967.588 -595.559)" fill="#fff"/>
      <path id="路径_51281" data-name="路径 51281" d="M1157.931,695.331a5.857,5.857,0,0,1-3.507,1.464,6.016,6.016,0,0,1-5.2-2.235,1.242,1.242,0,0,1,.229-.05c.671,0,1.343-.005,2.014.006a.523.523,0,0,1,.312.115,5.325,5.325,0,0,0,2.919,1.325,4.82,4.82,0,0,0,3.072-.616l.128-.077Z" transform="translate(-1130.057 -668.809)" fill="#fff"/>
    </g>
  </g>
</svg>
