<svg xmlns="http://www.w3.org/2000/svg" width="84" height="40" viewBox="0 0 84 40">
  <g id="img_verify" transform="translate(18260 22151)">
    <rect id="矩形_3806" data-name="矩形 3806" width="84" height="40" rx="4" transform="translate(-18260 -22151)" fill="#ebeef7"/>
    <path id="路径_32831" data-name="路径 32831" d="M-23.34.26c2.76,0,4.6-1.66,4.6-3.8a4.278,4.278,0,0,0-2.48-3.84v-.1a4.807,4.807,0,0,0,1.96-3.54,3.708,3.708,0,0,0-4.02-3.86,3.73,3.73,0,0,0-4.02,3.72,4.076,4.076,0,0,0,1.98,3.38v.1a4.7,4.7,0,0,0-2.7,4.04C-28.02-1.38-26.04.26-23.34.26Zm1-8.22c-1.72-.68-3.3-1.44-3.3-3.2a2.258,2.258,0,0,1,2.34-2.38,2.43,2.43,0,0,1,2.48,2.62A3.933,3.933,0,0,1-22.34-7.96ZM-23.3-1.1a2.811,2.811,0,0,1-3.06-2.7,3.985,3.985,0,0,1,2-3.32c2.08.84,3.88,1.58,3.88,3.54A2.54,2.54,0,0,1-23.3-1.1ZM-9.38,0h1.9c.22-5.74.86-9.16,4.3-13.56v-1.12h-9.18v1.58h7.1C-8.12-9.1-9.14-5.56-9.38,0ZM7.46.26a4.761,4.761,0,0,0,4.8-5.04c0-3.22-1.98-4.66-4.42-4.66a4.263,4.263,0,0,0-2.18.58l.36-4.24h5.54v-1.58H4.42L3.96-7.8l.98.6a3.989,3.989,0,0,1,2.44-.86c1.84,0,3.04,1.24,3.04,3.34A3.169,3.169,0,0,1,7.3-1.26,4.823,4.823,0,0,1,3.7-2.88l-.9,1.2A6.228,6.228,0,0,0,7.46.26ZM21.78,0h1.9c.22-5.74.86-9.16,4.3-13.56v-1.12H18.8v1.58h7.1C23.04-9.1,22.02-5.56,21.78,0Z" transform="translate(-18218 -22123)" fill="#525974"/>
  </g>
</svg>
