<svg xmlns="http://www.w3.org/2000/svg" width="20" height="20" viewBox="0 0 20 20">
  <g id="组_19833" data-name="组 19833" transform="translate(-73.667 -20)">
    <path id="路径_51342" data-name="路径 51342" d="M25.667,1.5v20h-20Z" transform="translate(68 18.5)" fill="#d22a1f"/>
    <path id="路径_32769" data-name="路径 32769" d="M8.856,78.908l-.295-.27a.526.526,0,0,0-.7,0L3.723,84.085,1.135,81.712a.513.513,0,0,0-.348-.132.513.513,0,0,0-.348.132l-.295.27a.426.426,0,0,0,0,.638L3.066,85.3l.013.014.295.266a.51.51,0,0,0,.349.127h0a.509.509,0,0,0,.348-.127l.295-.268a.07.07,0,0,0,.011-.011l4.478-5.754A.425.425,0,0,0,8.856,78.908Z" transform="translate(82.545 -49.029)" fill="#fff"/>
  </g>
</svg>
