<svg xmlns="http://www.w3.org/2000/svg" xmlns:xlink="http://www.w3.org/1999/xlink" width="38" height="38" viewBox="0 0 38 38">
  <defs>
    <linearGradient id="linear-gradient" x1="1" y1="1.105" x2="0" gradientUnits="objectBoundingBox">
      <stop offset="0" stop-color="#ee2757"/>
      <stop offset="1" stop-color="#f95147"/>
    </linearGradient>
    <clipPath id="clip-path">
      <rect id="矩形_773" data-name="矩形 773" width="22" height="22" transform="translate(17 191)" fill="none"/>
    </clipPath>
  </defs>
  <g id="组_17891" data-name="组 17891" transform="translate(-361 -558)">
    <g id="椭圆_277" data-name="椭圆 277" transform="translate(364 561)" stroke="#ffdcdc" stroke-width="3" fill="url(#linear-gradient)">
      <circle cx="16" cy="16" r="16" stroke="none"/>
      <circle cx="16" cy="16" r="17.5" fill="none"/>
    </g>
    <g id="icon_marquee" transform="translate(352 375)" clip-path="url(#clip-path)">
      <g id="favourites-filled-star-symbol" transform="translate(18 188.387)">
        <path id="路径_43157" data-name="路径 43157" d="M19.13,9.981l-5.508-.548a.959.959,0,0,1-.789-.615L10.861,3.785a.927.927,0,0,0-1.752,0L7.152,8.818a.939.939,0,0,1-.789.615L.855,9.981a1.015,1.015,0,0,0-.537,1.744l4.151,3.837a1.025,1.025,0,0,1,.3.98L3.522,21.924a.965.965,0,0,0,1.4,1.1l4.592-2.841a.914.914,0,0,1,.963,0l4.593,2.841a.962.962,0,0,0,1.4-1.1l-1.231-5.382a1.025,1.025,0,0,1,.3-.98L19.7,11.725A1.027,1.027,0,0,0,19.13,9.981Z" transform="translate(0 0)" fill="#fff"/>
      </g>
    </g>
  </g>
</svg>
